<?xml version="1.0" standalone="no"?>
<!DOCTYPE svg PUBLIC "-//W3C//DTD SVG 20010904//EN"
 "http://www.w3.org/TR/2001/REC-SVG-20010904/DTD/svg10.dtd">
<svg version="1.0" xmlns="http://www.w3.org/2000/svg"
 width="16.000000pt" height="16.000000pt" viewBox="0 0 16.000000 16.000000"
 preserveAspectRatio="xMidYMid meet">
<metadata>
Created by potrace 1.11, written by Peter Selinger 2001-2013
</metadata>
<g transform="translate(0.000000,16.000000) scale(0.006154,-0.006154)"
fill="#000000" stroke="none">
<path d="M1270 2457 l0 -85 83 -12 c347 -50 647 -285 776 -610 25 -63 41 -128
67 -277 4 -22 9 -23 88 -23 l85 0 -6 58 c-3 31 -18 107 -33 168 -115 460 -519
809 -992 859 l-68 7 0 -85z"/>
<path d="M1000 2200 c-164 -43 -332 -151 -440 -282 -61 -75 -142 -237 -164
-329 -51 -212 -15 -463 99 -689 72 -142 205 -325 351 -479 89 -95 350 -331
366 -331 17 0 168 131 291 253 245 242 409 478 491 707 31 85 56 195 56 246
l0 34 -85 0 c-80 0 -85 -1 -89 -22 -23 -111 -33 -143 -67 -215 -72 -152 -226
-285 -393 -340 -67 -22 -100 -26 -191 -27 -125 -1 -189 12 -290 59 -183 84
-324 255 -370 446 -22 94 -19 238 6 329 33 119 83 205 174 296 94 94 203 155
324 180 41 8 78 17 83 20 4 3 8 41 8 85 l0 79 -42 -1 c-24 0 -77 -9 -118 -19z"/>
<path d="M1270 2135 c0 -82 1 -85 23 -85 46 0 144 -31 227 -72 170 -83 305
-258 346 -448 l17 -80 85 0 84 0 -7 57 c-35 280 -248 550 -519 657 -71 29
-182 56 -228 56 l-28 0 0 -85z"/>
<path d="M1080 1945 c-214 -52 -369 -215 -416 -437 -19 -86 -12 -206 11 -224
8 -6 15 -23 15 -38 0 -22 30 -66 45 -66 3 0 5 11 5 25 0 29 31 50 48 33 7 -7
12 -22 12 -35 0 -38 19 -26 22 15 2 26 9 40 24 46 20 9 21 19 27 169 5 128 9
163 22 177 12 13 23 16 38 11 31 -12 46 -95 48 -266 1 -77 4 -129 6 -115 3 14
9 29 14 34 5 6 9 56 9 113 l0 103 40 26 c32 21 40 33 41 58 1 23 3 25 6 9 2
-13 9 -23 14 -23 5 0 9 -39 9 -86 l0 -86 29 24 c17 13 30 32 31 43 0 12 3 16
8 9 4 -7 16 -13 27 -15 31 -6 57 -72 64 -163 4 -60 10 -82 21 -84 13 -2 15 23
12 188 -2 164 -1 191 13 196 9 4 15 18 15 36 0 21 6 31 19 35 13 3 21 16 24
37 l4 31 1 -31 c2 -22 8 -33 22 -37 14 -4 20 -14 20 -35 0 -17 5 -32 11 -34 8
-3 11 -50 10 -147 -2 -113 1 -142 11 -138 9 3 12 24 10 75 l-3 70 71 4 c40 1
73 2 74 1 1 -1 -2 -55 -7 -120 -7 -102 -6 -119 7 -129 9 -6 16 -21 16 -32 0
-11 5 -24 10 -27 6 -3 10 1 10 9 0 9 9 16 20 16 64 0 103 84 103 225 1 163
-48 280 -163 395 -119 120 -238 171 -395 169 -44 0 -105 -7 -135 -14z"/>
</g>
</svg>
